<svg width="24" height="24" viewBox="0 0 24 24" fill="none" xmlns="http://www.w3.org/2000/svg">
<g clip-path="url(#clip0_6628_1658)">
<path d="M17.3369 0.673828C17.6909 0.674292 18.03 0.815111 18.2803 1.06543C18.5306 1.31575 18.6714 1.6548 18.6719 2.00879H21.3379V2.01074C22.0439 2.01259 22.7208 2.29342 23.2197 2.79297C23.7186 3.29252 23.999 3.96977 24 4.67578V20.6729C23.9999 22.1384 22.7996 23.3379 21.334 23.3379H2.66992C1.20452 23.3377 0.00495092 22.1383 0.00488281 20.6729V4.67383C0.00511752 3.20853 1.20462 2.00901 2.66992 2.00879H5.33594C5.33639 1.65511 5.47666 1.3157 5.72656 1.06543C5.97652 0.815151 6.3162 0.674735 6.66992 0.673828C7.02349 0.674842 7.36244 0.815247 7.6123 1.06543C7.86226 1.31571 8.00248 1.65507 8.00293 2.00879H16.0029C16.0034 1.65507 16.1446 1.31571 16.3945 1.06543C16.6445 0.815284 16.9833 0.674735 17.3369 0.673828ZM12.001 9.23926C10.3548 9.23926 8.77538 9.89357 7.61133 11.0576C6.44751 12.2216 5.79395 13.8002 5.79395 15.4463C5.79397 17.0923 6.44747 18.671 7.61133 19.835C8.77538 20.999 10.3548 21.6533 12.001 21.6533V21.6514C13.6467 21.6513 15.2249 20.9976 16.3887 19.834C17.5526 18.6701 18.207 17.0913 18.207 15.4453C18.207 13.7993 17.5526 12.2205 16.3887 11.0566C15.2249 9.89303 13.6467 9.23935 12.001 9.23926ZM12.0039 11.3389C12.3573 11.3398 12.6964 11.4806 12.9463 11.7305C13.1962 11.9804 13.337 12.3195 13.3379 12.6729V14.7881L14.8252 16.2793C15.0747 16.5295 15.2147 16.8684 15.2148 17.2217C15.2148 17.5751 15.0747 17.9147 14.8252 18.165C14.575 18.4139 14.2366 18.5537 13.8838 18.5537C13.5308 18.5537 13.1916 18.4141 12.9414 18.165L11.0576 16.2793C11.0028 16.2262 10.9786 16.1576 10.9375 16.0977C10.8775 16.0171 10.8126 15.9412 10.7715 15.8486C10.7099 15.6963 10.6792 15.532 10.6758 15.3711C10.6758 15.3608 10.6689 15.3516 10.6689 15.3379V12.6729C10.6699 12.3193 10.8105 11.9804 11.0605 11.7305C11.3108 11.4805 11.6502 11.3394 12.0039 11.3389ZM4.00195 4.67383C3.64881 4.67481 3.31035 4.81583 3.06055 5.06543C2.81066 5.31532 2.66987 5.65442 2.66895 6.00781C2.6694 6.36153 2.80961 6.70089 3.05957 6.95117C3.30945 7.20135 3.64836 7.34179 4.00195 7.34277H20.001C20.3549 7.34225 20.6941 7.20144 20.9443 6.95117C21.1946 6.70086 21.3355 6.36175 21.3359 6.00781C21.335 5.65412 21.1936 5.31537 20.9434 5.06543C20.6932 4.81563 20.3545 4.67435 20.001 4.67383H18.6738C18.6729 5.02755 18.5315 5.36723 18.2812 5.61719C18.0311 5.86684 17.6923 6.00729 17.3389 6.00781C16.6052 6.00781 16.0049 5.4075 16.0049 4.67383H8.00488C8.00398 5.02723 7.86316 5.36631 7.61328 5.61621C7.36337 5.86612 7.02432 6.00691 6.6709 6.00781C5.93567 6.00763 5.33594 5.40739 5.33594 4.67383H4.00195Z" fill="white"/>
</g>
<defs>
<clipPath id="clip0_6628_1658">
<rect width="24" height="24" fill="white"/>
</clipPath>
</defs>
</svg>
